<svg xmlns="http://www.w3.org/2000/svg" width="69" height="104" viewBox="0 0 69 104" fill="none">
  <rect width="69" height="104" rx="8" fill="white"/>
  <path fill-rule="evenodd" clip-rule="evenodd" d="M64.2214 3.9387C63.1169 2.98638 61.7492 2.33082 60.2423 2.09588L67 12.8224V10C67 9.27786 66.9043 8.57806 66.7249 7.9126L64.2214 3.9387ZM56.1819 2H59L67 14.6984V19.1716L56.1819 2ZM55 2H52.1819L67 25.5208V21.0476L55 2ZM48.1819 2H51L67 27.3968V31.87L48.1819 2ZM47 2H44.1819L67 38.2192V33.746L47 2ZM40.1819 2H43L67 40.0952V44.5684L40.1819 2ZM39 2H36.1819L67 50.9176V46.4444L39 2ZM32.1819 2H35L67 52.7937V57.2668L32.1819 2ZM31 2H28.1819L67 63.616V59.1429L31 2ZM24.1819 2H27L67 65.4921V69.9652L24.1819 2ZM23 2H20.1819L67 76.3144V71.8413L23 2ZM16.1819 2H19L67 78.1905V82.6636L16.1819 2ZM15 2H12.1819L67 89.0128V84.5397L15 2ZM10 2H11L67 90.8889V94C67 94.4135 66.9686 94.8197 66.9081 95.2162L8.29642 2.18177C8.84539 2.06271 9.41537 2 10 2ZM7.29532 2.46876C6.53448 2.74204 5.82705 3.12733 5.1929 3.60475L65.2714 98.9674C65.8354 98.2562 66.2811 97.4469 66.5786 96.5691L7.29532 2.46876ZM64.5748 99.7378C64.0035 100.293 63.3496 100.763 62.6333 101.129L2.89872 6.31241C3.2962 5.54854 3.81331 4.85688 4.42521 4.26224L64.5748 99.7378ZM2 10C2 9.10131 2.14818 8.23724 2.42145 7.43087L61.7047 101.531C60.9459 101.804 60.134 101.965 59.2887 101.995L2 11.0605V10ZM2 12.9365V17.2351L55.4019 102H58.11L2 12.9365ZM2 23.5843V19.1111L54.22 102H51.4019L2 23.5843ZM2 25.4603V29.9335L47.4019 102H50.22L2 25.4603ZM2 36.2827V31.8095L46.22 102H43.4019L2 36.2827ZM2 38.1587V42.6319L39.4019 102H42.22L2 38.1587ZM2 48.9811V44.5079L38.22 102H35.4019L2 48.9811ZM2 50.8571V55.3303L31.4019 102H34.22L2 50.8571ZM2 61.6795V57.2063L30.22 102H27.4019L2 61.6795ZM2 63.5556V68.0287L23.4019 102H26.22L2 63.5556ZM2 74.3779V69.9048L22.22 102H19.4019L2 74.3779ZM2 76.254V80.7271L15.4019 102H18.22L2 76.254ZM2 87.0763V82.6032L14.22 102H11.4019L2 87.0763ZM2 88.9524V93.4255L7.04757 101.438C7.96106 101.8 8.95723 102 10 102H10.22L2 88.9524ZM2.14715 95.5352C2.53384 97.5248 3.6579 99.2511 5.2234 100.418L2.14715 95.5352Z" fill="#5C5CFF"/>
  <path fill-rule="evenodd" clip-rule="evenodd" d="M4.77862 3.9387C5.88314 2.98638 7.25077 2.33082 8.75769 2.09588L2 12.8224V10C2 9.27786 2.09568 8.57806 2.27506 7.9126L4.77862 3.9387ZM12.8181 2H10L2 14.6984V19.1716L12.8181 2ZM14 2H16.8181L2 25.5208V21.0476L14 2ZM20.8181 2H18L2 27.3968V31.87L20.8181 2ZM22 2H24.8181L2 38.2192V33.746L22 2ZM28.8181 2H26L2 40.0952V44.5684L28.8181 2ZM30 2H32.8181L2 50.9176V46.4444L30 2ZM36.8181 2H34L2 52.7937V57.2668L36.8181 2ZM38 2H40.8181L2 63.616V59.1429L38 2ZM44.8181 2H42L2 65.4921V69.9652L44.8181 2ZM46 2H48.8181L2 76.3144V71.8413L46 2ZM52.8181 2H50L2 78.1905V82.6636L52.8181 2ZM54 2H56.8181L2 89.0128V84.5397L54 2ZM59 2H58L2 90.8889V94C2 94.4135 2.03136 94.8197 2.09186 95.2162L60.7036 2.18177C60.1546 2.06271 59.5846 2 59 2ZM61.7047 2.46876C62.4655 2.74204 63.173 3.12733 63.8071 3.60475L3.72863 98.9674C3.16456 98.2562 2.7189 97.4469 2.42145 96.5691L61.7047 2.46876ZM4.42521 99.7378C4.99648 100.293 5.65036 100.763 6.36667 101.129L66.1013 6.31241C65.7038 5.54854 65.1867 4.85688 64.5748 4.26224L4.42521 99.7378ZM67 10C67 9.10131 66.8518 8.23724 66.5785 7.43087L7.29532 101.531C8.05411 101.804 8.86602 101.965 9.71131 101.995L67 11.0605V10ZM67 12.9365V17.2351L13.5981 102H10.89L67 12.9365ZM67 23.5843V19.1111L14.78 102H17.5981L67 23.5843ZM67 25.4603V29.9335L21.5981 102H18.78L67 25.4603ZM67 36.2827V31.8095L22.78 102H25.5981L67 36.2827ZM67 38.1587V42.6319L29.5981 102H26.78L67 38.1587ZM67 48.9811V44.5079L30.78 102H33.5981L67 48.9811ZM67 50.8571V55.3303L37.5981 102H34.78L67 50.8571ZM67 61.6795V57.2063L38.78 102H41.5981L67 61.6795ZM67 63.5556V68.0287L45.5981 102H42.78L67 63.5556ZM67 74.3779V69.9048L46.78 102H49.5981L67 74.3779ZM67 76.254V80.7271L53.5981 102H50.78L67 76.254ZM67 87.0763V82.6032L54.78 102H57.5981L67 87.0763ZM67 88.9524V93.4255L61.9524 101.438C61.0389 101.8 60.0428 102 59 102H58.78L67 88.9524ZM66.8529 95.5352C66.4662 97.5248 65.3421 99.2511 63.7766 100.418L66.8529 95.5352Z" fill="#5C5CFF"/>
  <rect x="13" y="44" width="43" height="16" fill="white"/>
  <path d="M22.4609 57L22.0478 54.6837H19.867L19.487 57H18L19.8339 47H21.9983L23.9643 57H22.4609ZM20.0487 53.5176H21.8496L20.9078 48.246L20.0487 53.5176Z" fill="#5C5CFF"/>
  <path d="M26.5048 55.8339H29.0657V57H25.0179V47H26.5048V55.8339Z" fill="#5C5CFF"/>
  <path d="M31.4742 55.8339H34.0351V57H29.9873V47H31.4742V55.8339Z" fill="#5C5CFF"/>
  <path d="M37.8207 52.5009C37.7518 53.1623 37.4877 53.7942 37.0567 54.3296H38.5838C38.1528 53.7943 37.8891 53.1623 37.8207 52.5009Z" fill="#5C5CFF"/>
  <path d="M39.2459 50.9065C38.3003 50.3098 37.8325 49.6913 37.8206 49.6704C37.8078 49.6913 37.34 50.3098 36.3953 50.9065C35.4506 51.5033 35.2194 52.264 35.5616 52.8315C35.9037 53.3989 37.2749 53.6768 37.8206 52.5477C38.3654 53.6768 39.7366 53.3997 40.0787 52.8315C40.4208 52.2632 40.2035 51.5108 39.2459 50.9065Z" fill="#5C5CFF"/>
  <path d="M41.6076 47H43.0946V57H41.6076V47Z" fill="#5C5CFF"/>
  <path d="M48.6287 47H50V57H48.4965L46.3157 49.7796V57H44.9444V47H46.5139L48.6287 54.0128V47Z" fill="#5C5CFF"/>
</svg>