<svg width="20" height="20" viewBox="0 0 20 20" fill="none" xmlns="http://www.w3.org/2000/svg">
<g id="file_copy">
<mask id="mask0_112_20" style="mask-type:alpha" maskUnits="userSpaceOnUse" x="0" y="0" width="20" height="20">
<rect id="Bounding box" width="20" height="20" fill="#D9D9D9"/>
</mask>
<g mask="url(#mask0_112_20)">
<path id="file_copy_2" d="M15.8334 15.8335H6.66675C6.20841 15.8335 5.81605 15.6703 5.48966 15.3439C5.16328 15.0175 5.00008 14.6252 5.00008 14.1668V2.50016C5.00008 2.04183 5.16328 1.64947 5.48966 1.32308C5.81605 0.996691 6.20841 0.833496 6.66675 0.833496H12.5001L17.5001 5.8335V14.1668C17.5001 14.6252 17.3369 15.0175 17.0105 15.3439C16.6841 15.6703 16.2917 15.8335 15.8334 15.8335ZM11.6667 6.66683V2.50016H6.66675V14.1668H15.8334V6.66683H11.6667ZM3.33341 19.1668C2.87508 19.1668 2.48272 19.0036 2.15633 18.6772C1.82994 18.3509 1.66675 17.9585 1.66675 17.5002V5.8335H3.33341V17.5002H12.5001V19.1668H3.33341Z" fill="white"/>
</g>
</g>
</svg>
