<svg width="927" height="906" viewBox="0 0 927 906" fill="none" xmlns="http://www.w3.org/2000/svg">
<g filter="url(#filter0_f_39_1298)">
<circle cx="463.5" cy="442.5" r="363.5" fill="#BDBDFF" fill-opacity="0.35"/>
</g>
<path d="M674.584 618.58C663.812 629.811 653.619 637.055 645.568 642.776C550.911 710.041 438.909 690.433 415.095 685.646C379.948 678.575 312.009 664.906 262.884 607.695C188.565 521.136 200.137 384.759 257.784 294.746C268.33 278.282 324.029 186.89 437.239 172.234C505.752 163.364 585.616 181.248 643.451 229.242C764.854 329.975 756.211 533.472 674.584 618.58Z" fill="url(#paint0_linear_39_1298)"/>
<path d="M209.799 157.98C200.212 196.849 153.666 425.329 360.176 507.535C360.176 507.535 429.531 365.005 215.444 156.356C215.016 155.94 214.486 155.645 213.908 155.501C213.33 155.356 212.723 155.366 212.15 155.531C211.578 155.696 211.058 156.009 210.645 156.439C210.233 156.869 209.94 157.401 209.799 157.98Z" fill="#A3A3FF"/>
<path d="M226.457 194.93C227.966 208.282 230.035 221.588 232.363 234.84C234.691 248.093 237.364 261.282 240.351 274.4C246.333 300.628 253.558 326.587 262.455 351.962C271.352 377.337 281.945 402.139 295.095 425.556C298.355 431.419 301.852 437.153 305.484 442.79C309.115 448.426 312.946 453.934 316.988 459.283C325.002 470.016 333.996 479.981 343.855 489.048C343.981 489.163 344.083 489.302 344.155 489.456C344.228 489.611 344.269 489.778 344.277 489.948C344.284 490.119 344.258 490.289 344.2 490.449C344.142 490.609 344.053 490.757 343.938 490.883C343.823 491.009 343.685 491.111 343.53 491.183C343.376 491.255 343.209 491.297 343.039 491.304C342.868 491.312 342.698 491.286 342.538 491.228C342.378 491.17 342.23 491.081 342.104 490.966C332.172 481.748 323.118 471.625 315.059 460.729C311.005 455.317 307.163 449.755 303.534 444.044C299.891 438.346 296.414 432.556 293.155 426.641C280.036 403.015 269.544 378.047 260.712 352.57C251.88 327.093 244.786 301.027 238.913 274.724C235.983 261.57 233.377 248.349 231.096 235.061C228.825 221.778 226.816 208.454 225.363 195.039C225.354 194.898 225.4 194.759 225.491 194.65C225.582 194.542 225.712 194.473 225.852 194.458C225.993 194.443 226.134 194.482 226.246 194.568C226.359 194.654 226.434 194.78 226.455 194.92L226.457 194.93Z" fill="#BDD0FB"/>
<path d="M197.027 386.978C200.223 413.563 224.638 567.301 361.643 564.982C361.643 564.982 369.569 458.673 199.907 384.512C198.413 383.863 196.808 385.24 197.027 386.978Z" fill="#BDD0FB"/>
<path d="M215.202 405.457C218.993 412.965 223.083 420.353 227.282 427.663C231.481 434.974 235.849 442.185 240.355 449.31C244.861 456.435 249.533 463.449 254.352 470.357C259.17 477.265 264.144 484.071 269.329 490.705C274.514 497.339 279.827 503.871 285.435 510.149C291.044 516.426 296.767 522.582 302.855 528.368C304.343 529.851 305.896 531.262 307.457 532.672C309.017 534.081 310.525 535.535 312.145 536.868L316.938 540.944L321.872 544.833C328.523 549.917 335.468 554.601 342.76 558.651L342.781 558.663C343.16 558.889 343.436 559.255 343.551 559.681C343.665 560.108 343.609 560.562 343.395 560.949C343.18 561.335 342.824 561.622 342.402 561.75C341.979 561.879 341.523 561.837 341.13 561.635H341.115C326.247 553.166 312.942 542.347 300.849 530.464C294.752 524.559 289.023 518.298 283.453 511.915C277.882 505.532 272.585 498.914 267.442 492.192C262.3 485.47 257.364 478.59 252.594 471.603C247.823 464.617 243.198 457.53 238.748 450.344C234.298 443.158 229.987 435.878 225.846 428.505C221.704 421.133 217.689 413.7 213.942 406.097C213.857 405.926 213.843 405.729 213.904 405.547C213.965 405.366 214.095 405.217 214.265 405.132C214.436 405.046 214.634 405.032 214.815 405.093C214.996 405.154 215.146 405.284 215.231 405.455L215.202 405.457Z" fill="white"/>
<path d="M230.169 283.83L303.514 565.266C306.322 576.036 316.415 582.793 326.836 580.879L462.254 555.995C473.081 554.006 480.507 543.368 479.104 531.855L443.743 242.024C442.24 229.708 431.28 221.235 419.702 223.456L246.305 256.734C234.432 259.011 226.969 271.548 230.169 283.83Z" fill="#BDD0FB"/>
<path d="M241.829 293.644L310.022 557.782C312.632 567.891 321.897 574.276 331.428 572.517L455.293 549.756C465.197 547.938 471.954 537.994 470.633 527.196L437.166 255.348C435.745 243.795 425.673 235.807 415.091 237.84L256.492 268.311C245.637 270.395 238.853 282.117 241.829 293.644Z" fill="white"/>
<path d="M445.417 495.406H445.394C443.595 495.722 441.894 494.447 441.595 492.541L406.624 270.647C405.809 265.482 401.167 261.957 396.269 262.783L284.536 281.718C282.737 282.023 281.044 280.729 280.755 278.828C280.611 277.938 280.816 277.026 281.328 276.284C281.84 275.542 282.619 275.026 283.502 274.845L395.234 255.912C403.699 254.475 411.724 260.576 413.143 269.509L448.114 491.405C448.4 493.289 447.202 495.078 445.417 495.406Z" fill="#3939F8"/>
<path d="M340.066 546.051C331.553 547.616 323.354 542.215 320.957 533.431C294.551 436.733 263.001 321.021 262.654 318.919C262.342 317.022 263.544 315.218 265.339 314.892C267.103 314.567 268.79 315.787 269.139 317.628C270.01 321.476 299.729 430.554 327.296 531.512C328.755 536.857 333.748 540.142 338.933 539.195L339.015 539.179L428.407 521.974H428.434C430.217 521.646 431.922 522.899 432.248 524.784C432.574 526.669 431.385 528.493 429.592 528.838L340.2 546.043L340.066 546.051Z" fill="#3939F8"/>
<path d="M281.065 302.362L280.226 302.646C279.657 302.833 279.042 302.819 278.483 302.605C277.924 302.391 277.456 301.991 277.158 301.472L274.966 297.828C274.668 297.309 274.2 296.909 273.641 296.696C273.082 296.482 272.466 296.467 271.898 296.655L266.899 298.344C266.325 298.552 265.835 298.941 265.501 299.452C265.167 299.964 265.009 300.57 265.049 301.179L265.27 305.494C265.31 306.104 265.152 306.71 264.818 307.221C264.484 307.733 263.994 308.122 263.419 308.331L262.562 308.62C260.881 309.195 259.147 307.905 259.082 306.039L258.079 277.154C258.05 276.552 258.214 275.957 258.547 275.455C258.881 274.953 259.367 274.572 259.934 274.367L264.234 272.912C264.792 272.728 265.396 272.739 265.947 272.942C266.498 273.146 266.963 273.531 267.268 274.033L282.467 298.12C283.454 299.673 282.753 301.793 281.065 302.362ZM263.903 279.085L263.747 279.139L264.399 289.963C264.508 291.795 266.221 293.032 267.875 292.468C269.53 291.908 270.243 289.856 269.327 288.297L263.903 279.085Z" fill="#3939F8"/>
<path d="M434.244 501.748L435.099 501.528C435.681 501.384 436.294 501.444 436.836 501.697C437.379 501.951 437.818 502.383 438.081 502.922L440.029 506.719C440.291 507.258 440.73 507.691 441.273 507.945C441.815 508.198 442.429 508.258 443.01 508.114L448.107 506.794C448.693 506.628 449.209 506.275 449.576 505.789C449.943 505.302 450.141 504.709 450.139 504.1L450.201 499.781C450.201 499.173 450.4 498.582 450.767 498.097C451.133 497.613 451.648 497.261 452.233 497.096L453.107 496.869C454.833 496.424 456.467 497.828 456.409 499.698L455.518 528.587C455.51 529.188 455.308 529.77 454.942 530.247C454.576 530.723 454.066 531.069 453.487 531.232L449.1 532.369C448.529 532.51 447.926 532.454 447.39 532.211C446.855 531.967 446.417 531.55 446.147 531.026L432.562 505.889C431.684 504.242 432.522 502.188 434.244 501.748ZM449.84 526.232L449.997 526.189L450.057 515.342C450.057 513.509 448.44 512.153 446.753 512.59C445.066 513.027 444.218 515.024 445.027 516.646L449.84 526.232Z" fill="url(#paint1_linear_39_1298)"/>
<path d="M285.055 253.083L355.962 550.723C358.677 562.113 369.138 569.464 380.134 567.707L523.032 544.873C534.458 543.047 542.497 532.047 541.274 519.912L510.48 214.379C509.171 201.395 497.825 192.22 485.617 194.27L302.608 225.002C290.083 227.1 281.968 240.093 285.055 253.083Z" fill="#91B3FA"/>
<path d="M300.707 262.135L365.633 540.641C368.126 551.298 377.442 558.245 387.179 556.689L513.692 536.473C523.808 534.856 530.859 524.646 529.691 513.303L500.27 227.735C499.02 215.6 488.9 206.943 478.089 208.763L316.068 236.039C304.977 237.909 297.883 249.982 300.707 262.135Z" fill="white"/>
<path d="M507.102 480.406C506.94 480.459 506.774 480.499 506.605 480.523C504.839 480.792 503.202 479.497 502.949 477.631L471.068 243.526C470.301 237.941 465.383 234.025 460.091 234.796L342.223 251.957C340.455 252.216 338.826 250.912 338.58 249.044C338.335 247.176 339.57 245.452 341.339 245.199L459.207 228.036C468.008 226.754 476.197 233.268 477.461 242.554L509.341 476.661C509.566 478.351 508.596 479.921 507.102 480.406Z" fill="url(#paint2_linear_39_1298)"/>
<path d="M489.705 515.156C489.559 515.203 489.41 515.239 489.258 515.265L394.922 531.157C386.007 532.659 377.544 526.844 375.235 517.632C349.607 415.337 318.992 292.934 318.672 290.728C318.405 288.864 319.615 287.125 321.383 286.843C323.109 286.567 324.738 287.802 325.047 289.612C325.843 293.542 354.7 408.997 381.479 515.885C382.934 521.696 388.274 525.365 393.9 524.417L488.236 508.526C489.999 508.229 491.655 509.497 491.937 511.359C492.198 513.064 491.218 514.663 489.705 515.156Z" fill="url(#paint3_linear_39_1298)"/>
<path d="M341.713 272.699L335.194 274.739L330.728 266.937L321.275 269.889L321.552 279.003L315.021 281.043L314.517 244.502L323.145 241.806L341.713 272.699ZM320.622 248.917L320.459 248.969L321.053 264.16L327.956 262.005L320.622 248.917Z" fill="url(#paint4_linear_39_1298)"/>
<path d="M491.159 488.007L497.806 486.448L501.75 494.558L511.364 492.303L511.686 483.191L518.336 481.632L516.445 518.123L507.666 520.181L491.159 488.007ZM510.643 513.273L510.81 513.234L511.211 498.035L504.187 499.683L510.643 513.273Z" fill="url(#paint5_linear_39_1298)"/>
<path d="M346.777 215.723L397.78 529.653C399.732 541.669 410.006 550.151 421.516 549.254L571.098 537.601C583.057 536.671 592.203 525.959 591.85 513.3L582.943 194.563C582.56 181.019 571.516 170.575 558.726 171.674L367.046 188.131C353.927 189.257 344.549 202.024 346.777 215.723Z" fill="#BDD0FB"/>
<path d="M358.437 227.702L405.605 522.266C407.41 533.539 416.822 541.515 427.351 540.694L564.166 530.037C575.105 529.185 583.453 519.155 583.11 507.279L574.442 208.286C574.073 195.58 563.949 185.762 552.251 186.769L376.93 201.857C364.937 202.891 356.38 214.848 358.437 227.702Z" fill="white"/>
<path d="M558.981 469.897H558.955C556.97 470.037 555.254 468.451 555.12 466.354L539.721 221.444C539.362 215.744 534.68 211.389 529.283 211.736L406.025 219.612C404.039 219.739 402.332 218.141 402.212 216.045C402.138 215.066 402.45 214.096 403.082 213.344C403.713 212.591 404.613 212.116 405.59 212.018L528.845 204.135C538.183 203.537 546.294 211.074 546.906 220.934L562.306 465.844C562.44 467.938 560.953 469.743 558.981 469.897Z" fill="#3939F8"/>
<path d="M439.427 512.945C430.031 513.677 421.669 506.881 419.959 497.073C401.126 389.068 378.641 259.834 378.478 257.513C378.332 255.419 379.82 253.595 381.806 253.44C383.754 253.288 385.449 254.803 385.653 256.844C386.207 261.121 407.381 382.939 427.044 495.696C428.085 501.666 433.18 505.805 438.897 505.36H438.99L537.809 496.823H537.84C539.809 496.67 541.531 498.223 541.694 500.306C541.857 502.389 540.381 504.238 538.398 504.408L439.58 512.933L439.427 512.945Z" fill="#3939F8"/>
<path d="M400.154 241.624L399.215 241.837C398.575 241.971 397.908 241.884 397.325 241.589C396.742 241.294 396.276 240.809 396.005 240.214L393.995 235.995C393.726 235.399 393.26 234.913 392.676 234.618C392.092 234.323 391.425 234.237 390.786 234.374L385.185 235.642C384.539 235.802 383.963 236.171 383.548 236.691C383.132 237.211 382.899 237.853 382.884 238.519L382.692 243.229C382.678 243.895 382.445 244.537 382.029 245.058C381.614 245.578 381.038 245.946 380.391 246.106L379.433 246.324C377.548 246.75 375.79 245.16 375.918 243.127L377.766 211.648C377.793 210.992 378.032 210.364 378.447 209.856C378.862 209.348 379.431 208.989 380.067 208.832L384.888 207.741C385.516 207.606 386.172 207.686 386.749 207.97C387.326 208.253 387.791 208.722 388.069 209.302L402.121 237.18C403.023 238.975 402.045 241.196 400.154 241.624ZM383.887 214.39L383.714 214.428L383.319 226.258C383.254 228.258 384.985 229.792 386.84 229.372C388.694 228.952 389.677 226.804 388.841 225.007L383.887 214.39Z" fill="#3939F8"/>
<path d="M546.202 475.508L547.161 475.366C547.81 475.277 548.471 475.412 549.033 475.749C549.596 476.085 550.028 476.603 550.257 477.217L551.983 481.565C552.212 482.179 552.644 482.697 553.207 483.033C553.769 483.37 554.43 483.504 555.079 483.416L560.747 482.56C561.399 482.448 561.995 482.124 562.443 481.639C562.892 481.153 563.168 480.533 563.229 479.875L563.735 475.192C563.793 474.532 564.068 473.91 564.517 473.422C564.966 472.935 565.563 472.61 566.216 472.497L567.188 472.351C569.096 472.062 570.737 473.778 570.486 475.804L566.578 507.065C566.51 507.714 566.231 508.324 565.784 508.8C565.338 509.277 564.748 509.595 564.105 509.706L559.225 510.442C558.587 510.53 557.938 510.402 557.382 510.078C556.826 509.753 556.394 509.251 556.157 508.653L543.962 479.814C543.168 477.942 544.288 475.798 546.202 475.508ZM560.648 503.858L560.822 503.831L561.99 492.059C562.182 490.069 560.559 488.415 558.684 488.695C556.807 488.979 555.683 491.051 556.401 492.903L560.648 503.858Z" fill="url(#paint6_linear_39_1298)"/>
<path d="M469.511 262.496C467.839 259.427 463.567 259.736 462.299 263.002C452.78 287.474 424.82 360.918 425.293 378.292C425.853 399.225 452.218 427.683 477.206 384.736C477.206 384.736 487.707 405.848 506.3 400.585C517.749 397.346 522.364 384.514 524.222 375.131C525.41 369.189 524.48 363.018 521.594 357.69L469.511 262.496Z" fill="#3939F8"/>
<path d="M476.429 395.63C475.413 413.677 470.579 443.959 461.492 458.687C459.91 461.251 461.479 465.098 464.048 464.897L498.828 462.187C501.244 461.995 502.354 458.328 500.726 455.944C495.11 447.726 486.141 425.084 479.616 395.321C479.123 393.038 476.561 393.288 476.429 395.63Z" fill="url(#paint7_linear_39_1298)"/>
<path d="M460.066 180.452L471.077 511.134C471.499 523.792 480.952 534.037 492.921 534.81L648.44 544.868C660.877 545.671 671.706 535.994 673.016 522.91L705.976 193.487C707.378 179.487 697.384 167.107 684.074 166.352L484.58 155.036C470.926 154.261 459.585 166.02 460.066 180.452Z" fill="#91B3FA"/>
<path d="M474.625 193.741L483.429 502.824C483.767 514.654 492.11 524.201 502.705 524.88L640.397 533.777C651.405 534.488 661.024 525.409 662.221 513.173L692.353 205.131C693.638 192.041 684.818 180.507 673.035 179.836L496.407 169.896C484.319 169.215 474.241 180.243 474.625 193.741Z" fill="white"/>
<path d="M645.453 473.107C645.271 473.121 645.087 473.121 644.905 473.107C642.987 472.969 641.538 471.212 641.67 469.185L658.19 214.799C658.574 208.73 654.231 203.428 648.488 202.975L520.566 192.918C518.649 192.766 517.209 191 517.352 188.977C517.496 186.953 519.164 185.427 521.084 185.582L649.006 195.639C658.559 196.389 665.797 205.211 665.141 215.303L648.619 469.693C648.5 471.525 647.133 472.95 645.453 473.107Z" fill="url(#paint8_linear_39_1298)"/>
<path d="M619.675 505.584C619.511 505.597 619.345 505.597 619.181 505.584L516.327 499.806C506.607 499.259 498.932 491.108 498.472 480.848C493.36 366.896 487.297 230.556 487.435 228.155C487.552 226.127 489.201 224.582 491.126 224.702C493.013 224.825 494.456 226.513 494.386 228.496C494.386 232.828 500.082 361.425 505.422 480.502C505.714 486.975 510.557 492.117 516.689 492.462L619.543 498.243C621.46 498.348 622.939 500.082 622.837 502.111C622.751 503.963 621.376 505.423 619.675 505.584Z" fill="url(#paint9_linear_39_1298)"/>
<path d="M515.586 214.66L508.268 215.251L505.232 205.961L494.644 206.816L492.984 216.488L485.661 217.081L492.947 178.442L502.615 177.659L515.586 214.66ZM498.447 184.55L498.255 184.565L495.63 200.722L503.365 200.096L498.447 184.55Z" fill="url(#paint10_linear_39_1298)"/>
<path d="M627.011 477.309L634.353 477.252L636.773 486.743L647.392 486.663L649.692 477.135L657.034 477.079L647.229 515.093L637.532 515.168L627.011 477.309ZM642.142 508.597H642.333L646.011 492.679L638.253 492.738L642.142 508.597Z" fill="url(#paint11_linear_39_1298)"/>
<path d="M567.188 416.595C569.04 419.802 574.58 419.902 576.551 416.762C591.315 393.236 634.84 322.576 636 305.203C637.392 284.267 606.221 253.42 569.613 293.927C569.613 293.927 558.182 271.887 533.641 275.401C518.528 277.566 511.27 289.936 507.922 299.123C505.798 304.959 506.364 311.238 509.556 316.767L567.188 416.595Z" fill="url(#paint12_linear_39_1298)"/>
<path d="M271.384 688.388C271.389 688.216 271.371 688.043 271.331 687.875C268.773 677.729 256.074 671.41 256.074 671.41L251.042 671.805C248.149 680.746 248.521 686.231 248.985 688.682C248.998 688.751 249.02 688.814 249.037 688.874C253.188 689.244 261.732 689.487 271.384 688.388Z" fill="url(#paint13_linear_39_1298)"/>
<path d="M249.037 688.874C249.13 689.263 249.328 689.62 249.609 689.904C249.891 690.189 250.246 690.39 250.634 690.487C256.54 691.729 265.924 690.728 269.864 690.214C270.734 690.101 271.369 689.296 271.384 688.388C261.732 689.487 253.188 689.244 249.037 688.874Z" fill="url(#paint14_linear_39_1298)"/>
<path d="M249.02 664.308L251.15 674.57C251.211 674.923 251.383 675.247 251.641 675.496C251.899 675.744 252.229 675.904 252.584 675.951C253.685 676.059 254.795 676.039 255.892 675.89C256.99 675.729 257.757 674.611 257.562 673.412L256.083 664.308H249.02Z" fill="url(#paint15_linear_39_1298)"/>
<path d="M293.176 688.77C287.615 688.615 284.739 687.961 283.259 687.353C283.259 687.905 283.259 688.467 283.276 689.05C283.271 689.336 283.377 689.613 283.573 689.821C283.768 690.03 284.038 690.153 284.323 690.166L314.837 689.975C315.811 689.975 316.371 688.837 315.959 687.945C311.957 688.272 301.768 689.012 293.176 688.77Z" fill="url(#paint16_linear_39_1298)"/>
<path d="M315.958 687.942C315.925 687.862 315.884 687.785 315.838 687.711C313.142 683.945 306.279 676.444 292.716 673.191L286.21 672.986C286.21 672.986 283.313 678.022 283.259 687.353C284.745 687.961 287.619 688.615 293.176 688.77C301.768 689.012 311.957 688.271 315.958 687.942Z" fill="url(#paint17_linear_39_1298)"/>
<path d="M285.004 663.125C285.077 663.61 285.962 670.988 286.313 673.84C286.34 674.156 286.472 674.454 286.689 674.686C286.906 674.918 287.194 675.071 287.508 675.119C288.614 675.251 290.407 675.372 291.975 675.05C292.823 674.877 293.435 674.064 293.435 673.118V661.546L285.004 663.125Z" fill="url(#paint18_linear_39_1298)"/>
<path d="M279.785 528.579C279.785 528.579 295.477 588.225 295.193 663.295C295.19 663.959 294.96 664.602 294.542 665.116C294.123 665.631 293.541 665.988 292.892 666.126C290.919 666.542 288.018 667.035 285.617 666.968C284.995 666.947 284.399 666.711 283.931 666.301C283.463 665.89 283.151 665.331 283.048 664.716C280.849 651.811 268.221 579.101 261.026 567.289C261.026 567.289 256.292 632.048 257.805 665.645C257.824 666.047 257.69 666.442 257.43 666.75C257.169 667.057 256.802 667.254 256.402 667.302C254.46 667.509 252.502 667.503 250.561 667.284C250.089 667.237 249.645 667.034 249.301 666.706C248.957 666.379 248.733 665.946 248.663 665.476C247.096 654.544 238.075 589.529 238.458 542.697C238.48 540.056 245.442 528.572 245.442 528.572L279.785 528.579Z" fill="#1B1BF8"/>
<path d="M301.609 456.385C299.085 453.218 296.86 449.823 294.965 446.244C292.357 441.317 294.754 449.431 294.042 443.869C274.523 429.779 245.129 436.911 233.759 438.344C230.037 438.818 226.622 440.653 224.172 443.495C214.429 454.772 203.793 510.962 221.468 513.766C224.688 511.978 227.192 498.592 230.298 495.274C228.641 487.986 229.936 489.752 231.941 478.606C232.139 479.581 232.388 480.546 232.687 481.496C240.729 506.976 241.156 528.182 241.139 533.069C241.137 533.393 241.232 533.71 241.413 533.98C241.593 534.249 241.851 534.457 242.151 534.578C252.734 538.819 273.108 536.304 279.946 535.274C280.545 535.18 281.082 534.853 281.441 534.364C281.8 533.875 281.952 533.264 281.863 532.664C278.506 508.342 295.732 468.332 300.282 458.311C300.606 457.595 301.055 456.943 301.609 456.385Z" fill="#5C5CFF"/>
<path d="M252.057 417.863L250.013 438.708C250.013 438.708 261.736 442.239 270.263 436.215L264.269 417.271L252.057 417.863Z" fill="url(#paint19_linear_39_1298)"/>
<path d="M230.865 476.699C226.601 465.023 228.149 450.923 228.164 450.781L229.339 450.916C229.324 451.056 227.805 464.883 231.978 476.293L230.865 476.699Z" fill="url(#paint20_linear_39_1298)"/>
<path d="M260.445 565.776C260.314 565.777 260.186 565.734 260.082 565.653C259.978 565.573 259.903 565.46 259.87 565.333C258.568 560.314 248.824 554.796 248.726 554.741C248.658 554.703 248.598 554.652 248.549 554.592C248.501 554.531 248.465 554.461 248.443 554.386C248.422 554.311 248.415 554.233 248.424 554.156C248.433 554.078 248.457 554.003 248.495 553.935C248.533 553.867 248.584 553.808 248.645 553.759C248.706 553.711 248.776 553.676 248.851 553.654C248.926 553.633 249.004 553.627 249.082 553.637C249.159 553.646 249.234 553.671 249.301 553.709C249.719 553.943 259.585 559.53 261.011 565.036C261.031 565.111 261.035 565.189 261.025 565.266C261.014 565.343 260.988 565.417 260.949 565.484C260.909 565.551 260.857 565.61 260.795 565.657C260.733 565.703 260.663 565.737 260.587 565.757C260.541 565.769 260.493 565.776 260.445 565.776Z" fill="url(#paint21_linear_39_1298)"/>
<path d="M341.232 462.94C319.153 466.255 304.765 452.321 294.042 443.869C279.886 432.709 268.869 438.139 268.869 438.139L283.966 466.958C306.511 488.22 329.628 483.5 344.202 476.609C344.378 471.875 343.357 467.174 341.232 462.94Z" fill="#5C5CFF"/>
<path d="M372.26 449.774L364.939 453.716C356.159 459.063 348.301 461.888 341.232 462.948C343.357 467.182 344.378 471.883 344.202 476.617C353.478 472.231 359.294 466.966 359.294 466.966C375.88 457.062 372.26 449.774 372.26 449.774Z" fill="url(#paint22_linear_39_1298)"/>
<path d="M393.829 460.087C393.595 459.311 393.19 458.598 392.644 458.001C392.098 457.403 391.424 456.936 390.673 456.635L375.814 450.659C375.814 450.659 375.59 448.752 378.953 447.458C382.316 446.163 381.53 442.393 381.53 442.393C381.53 442.393 376.928 444.491 370.218 447.816C366.369 449.717 364.21 453.075 363.066 455.603L366.891 460.635C376.048 463.385 385.315 463.913 394.661 462.822L393.829 460.087Z" fill="url(#paint23_linear_39_1298)"/>
<path d="M269.172 393.491C269.172 393.491 274.326 406.243 274.519 412.861C274.713 419.48 276.024 423.818 268.341 424.944C260.658 426.07 254.314 422.094 250.998 415.41C250.998 415.41 245.796 405.111 247.133 400.984C248.469 396.857 269.172 393.491 269.172 393.491Z" fill="url(#paint24_linear_39_1298)"/>
<path d="M253.736 410.752L254.177 410.572C254.31 410.518 254.431 410.437 254.531 410.335C254.632 410.232 254.711 410.11 254.762 409.976C254.814 409.842 254.837 409.699 254.831 409.556C254.825 409.413 254.79 409.272 254.728 409.143C253.704 407.033 251.727 402.198 254.473 401.155C258.012 399.812 271.952 397.35 275.073 392.507C278.074 387.855 275.689 381.681 271.906 379.849C271.785 379.788 271.646 379.775 271.517 379.814C271.387 379.853 271.277 379.939 271.21 380.057L270.874 380.651C270.824 380.742 270.747 380.816 270.654 380.864C270.562 380.911 270.457 380.929 270.353 380.916C270.25 380.903 270.153 380.858 270.075 380.789C269.997 380.72 269.941 380.629 269.916 380.528C269.891 380.431 269.839 380.343 269.766 380.274C269.692 380.206 269.601 380.161 269.502 380.144C269.403 380.127 269.301 380.139 269.209 380.179C269.117 380.219 269.039 380.285 268.984 380.369C268.025 381.817 265.481 384.138 258.808 385.189C249.328 386.677 242.989 390.33 242.661 396.842C242.658 396.935 242.629 397.025 242.578 397.104C242.528 397.182 242.457 397.245 242.374 397.287C242.29 397.329 242.197 397.347 242.104 397.341C242.011 397.334 241.921 397.303 241.845 397.25C241.16 396.807 240.05 396.579 238.527 397.793C235.878 399.902 236.79 405.585 242.347 410.385C242.41 410.437 242.46 410.502 242.492 410.577C242.525 410.651 242.54 410.732 242.535 410.813C242.531 410.895 242.507 410.973 242.467 411.044C242.426 411.114 242.369 411.174 242.301 411.218C241.254 411.86 239.676 413.416 243.599 415.648C247.654 417.95 250.732 417.857 251.921 417.693C251.99 417.683 252.058 417.659 252.118 417.623C252.178 417.586 252.23 417.537 252.271 417.48C252.312 417.422 252.34 417.357 252.355 417.288C252.37 417.219 252.37 417.148 252.356 417.079L251.246 411.314C251.231 411.237 251.234 411.159 251.253 411.083C251.273 411.008 251.309 410.938 251.36 410.879C251.41 410.82 251.473 410.772 251.543 410.74C251.614 410.708 251.691 410.693 251.769 410.694L253.736 410.752Z" fill="url(#paint25_linear_39_1298)"/>
<path d="M253.942 411.968C253.942 411.968 252.061 403.861 248.393 406.022C244.725 408.184 250.028 415.096 252.922 415.474L253.942 411.968Z" fill="url(#paint26_linear_39_1298)"/>
<path d="M266.075 495.774C265.319 496.517 264.298 496.93 263.238 496.923C262.178 496.915 261.164 496.486 260.419 495.732L243.703 478.759C242.959 478.002 242.547 476.982 242.555 475.921C242.562 474.861 242.99 473.847 243.745 473.101L251.838 465.127C252.595 464.384 253.615 463.971 254.675 463.979C255.735 463.987 256.749 464.415 257.495 465.169L274.211 482.142C274.954 482.898 275.366 483.918 275.358 484.979C275.351 486.039 274.923 487.053 274.168 487.798L266.075 495.774Z" fill="url(#paint27_linear_39_1298)"/>
<path d="M252.482 465.781L244.387 473.748C243.805 474.322 243.475 475.104 243.469 475.921C243.462 476.739 243.781 477.526 244.355 478.109L261.069 495.088C261.642 495.67 262.424 496 263.241 496.006C264.058 496.012 264.844 495.694 265.427 495.12L273.532 487.144C274.114 486.57 274.444 485.788 274.45 484.971C274.456 484.154 274.138 483.367 273.564 482.785L256.85 465.813C256.566 465.524 256.227 465.293 255.854 465.135C255.48 464.976 255.079 464.893 254.673 464.89C254.267 464.887 253.865 464.964 253.489 465.117C253.113 465.27 252.771 465.495 252.482 465.781Z" fill="url(#paint28_linear_39_1298)"/>
<path d="M263.408 497.146C262.357 497.585 261.174 497.589 260.12 497.158C259.065 496.726 258.225 495.894 257.782 494.844L247.906 471.218C247.467 470.167 247.462 468.984 247.894 467.93C248.325 466.875 249.157 466.035 250.206 465.593L261.473 460.881C262.525 460.442 263.707 460.438 264.761 460.869C265.816 461.301 266.656 462.132 267.099 463.182L276.983 486.804C277.422 487.856 277.427 489.039 276.995 490.093C276.564 491.148 275.732 491.989 274.682 492.431L263.408 497.146Z" fill="url(#paint29_linear_39_1298)"/>
<path d="M261.861 461.78L250.594 466.492C249.784 466.832 249.141 467.48 248.808 468.293C248.475 469.106 248.478 470.018 248.816 470.829L258.693 494.461C259.032 495.271 259.679 495.914 260.492 496.247C261.305 496.581 262.218 496.578 263.028 496.238L274.299 491.52C274.7 491.353 275.064 491.107 275.371 490.799C275.677 490.49 275.92 490.124 276.085 489.722C276.25 489.319 276.334 488.888 276.333 488.453C276.331 488.018 276.244 487.587 276.076 487.186L266.2 463.56C266.032 463.158 265.786 462.793 265.478 462.486C265.169 462.179 264.802 461.935 264.399 461.77C263.996 461.605 263.564 461.521 263.129 461.522C262.693 461.524 262.262 461.612 261.861 461.78Z" fill="url(#paint30_linear_39_1298)"/>
<path d="M264.284 495.968C263.163 496.173 262.006 495.925 261.067 495.278C260.128 494.631 259.485 493.637 259.278 492.516L254.634 467.332C254.428 466.21 254.676 465.053 255.323 464.114C255.971 463.174 256.964 462.53 258.085 462.323L270.096 460.108C271.217 459.902 272.374 460.151 273.313 460.798C274.252 461.445 274.895 462.439 275.102 463.56L279.746 488.743C279.952 489.865 279.704 491.023 279.056 491.962C278.409 492.901 277.416 493.545 276.295 493.753L264.284 495.968Z" fill="url(#paint31_linear_39_1298)"/>
<path d="M270.272 461.09L258.263 463.305C257.836 463.384 257.427 463.546 257.062 463.782C256.697 464.019 256.382 464.325 256.135 464.683C255.889 465.042 255.715 465.445 255.624 465.871C255.533 466.296 255.527 466.736 255.606 467.164L260.248 492.351C260.327 492.779 260.489 493.187 260.726 493.552C260.962 493.917 261.269 494.232 261.627 494.478C261.985 494.725 262.388 494.899 262.814 494.989C263.239 495.08 263.678 495.086 264.106 495.007L276.115 492.792C276.542 492.713 276.951 492.551 277.316 492.314C277.681 492.078 277.996 491.772 278.243 491.413C278.49 491.055 278.663 490.652 278.754 490.226C278.845 489.8 278.851 489.361 278.772 488.933L274.128 463.75C274.05 463.322 273.888 462.914 273.651 462.548C273.415 462.183 273.109 461.868 272.751 461.621C272.393 461.374 271.99 461.2 271.565 461.109C271.139 461.018 270.7 461.011 270.272 461.09Z" fill="url(#paint32_linear_39_1298)"/>
<path d="M221.461 513.766C228.018 512.588 238.307 505.828 250.899 498.369C254.542 499.28 259.677 498.369 266.399 497.477C273.185 494.965 272.677 493.402 273.806 490.189C268.614 486.837 265.369 486.616 259.234 485.909L250.03 492.729L227.895 494.631C223.223 496.58 220.87 506.046 221.461 513.766Z" fill="url(#paint33_linear_39_1298)"/>
<path d="M611.104 581.738C611.104 581.738 656.093 468.009 723.223 412.131C727.735 408.374 734.613 411.072 735.334 416.9C740.154 455.866 743.343 572.4 611.104 581.738Z" fill="#C2C2FF"/>
<path d="M623.938 575.845C623.872 575.893 623.827 575.965 623.812 576.046C623.797 576.126 623.813 576.209 623.856 576.278C623.9 576.348 623.968 576.398 624.047 576.419C624.127 576.44 624.211 576.43 624.283 576.391C637.461 569.27 689.751 532.472 719.297 448.309C719.315 448.255 719.311 448.196 719.288 448.144C719.264 448.092 719.222 448.051 719.169 448.029C719.117 448.007 719.058 448.006 719.004 448.025C718.951 448.045 718.906 448.084 718.88 448.135C710.195 467.377 675.848 537.996 623.938 575.845Z" fill="white"/>
<path d="M606.951 588.788C606.951 588.788 616.694 442.575 667.131 354.114C670.521 348.168 678.346 348.699 680.914 355.073C698.088 397.687 738.07 529.285 606.951 588.788Z" fill="#9C9CFF"/>
<path d="M618.105 577.333C617.848 577.717 618.325 578.179 618.626 577.828C629.747 564.844 671.146 503.607 674.561 396.782C674.564 396.751 674.561 396.719 674.552 396.689C674.542 396.659 674.527 396.631 674.507 396.607C674.487 396.583 674.462 396.563 674.434 396.548C674.406 396.533 674.376 396.524 674.345 396.521C674.313 396.518 674.282 396.522 674.252 396.531C674.222 396.54 674.194 396.555 674.169 396.576C674.145 396.596 674.125 396.62 674.11 396.648C674.096 396.676 674.087 396.707 674.084 396.738C671.344 421.875 658.794 515.03 618.105 577.333Z" fill="white"/>
<path d="M512.729 618.565H507.698V672.986H512.729V618.565Z" fill="#7D97F4"/>
<path d="M532.245 674.035H488.181V673.799C488.181 673.4 488.259 673.005 488.411 672.636C488.564 672.267 488.788 671.932 489.07 671.65C489.352 671.368 489.687 671.144 490.055 670.991C490.424 670.838 490.819 670.76 491.218 670.76H528.97C529.839 670.76 530.672 671.105 531.286 671.719C531.9 672.333 532.245 673.167 532.245 674.035Z" fill="#7D97F4"/>
<path d="M533.374 606.371H488.792C485.804 606.371 483.382 608.794 483.382 611.783V616.676C483.382 619.665 485.804 622.088 488.792 622.088H533.374C536.363 622.088 538.785 619.665 538.785 616.676V611.783C538.785 608.794 536.363 606.371 533.374 606.371Z" fill="#7D97F4"/>
<path d="M473.072 582.279C473.072 582.279 465.594 583.43 457.19 589.059C456.539 589.489 456.022 590.091 455.696 590.799C455.369 591.507 455.246 592.292 455.341 593.065C456.348 601.038 460.486 626.848 474.132 652.059C474.847 653.391 475.062 654.935 474.74 656.412L472.368 667.451L467.971 671.575H479.296L486.835 651.165L483.612 650.146C482.392 649.761 481.325 649.002 480.561 647.977C479.796 646.951 479.373 645.712 479.351 644.433L478.968 622.539C479.29 612.785 472.987 606.045 472.987 606.045L491.072 605.165L473.072 582.279Z" fill="url(#paint34_linear_39_1298)"/>
<path d="M463.548 673.562C462.516 674.904 474.648 676.693 480.776 673.74C480.776 673.74 489.272 658.955 489.272 651.341C489.272 651.341 488.599 649.79 483.61 650.143C483.61 650.143 480.757 667.649 477.744 669.611C474.732 671.573 469.308 669.802 469.308 669.802C469.308 669.802 465.082 671.571 463.548 673.562Z" fill="url(#paint35_linear_39_1298)"/>
<path d="M488.792 606.371C488.697 606.204 469.321 604.041 469.321 604.041C469.321 604.041 469.954 609.935 467.979 618.041C466.004 626.148 437.55 661.297 437.55 661.297L440.531 670.756C431.31 673.968 422.237 674.482 413.304 672.393L431.79 661.297C431.79 661.297 449.089 602.327 459.686 591.807L479.108 585.095L488.792 606.371Z" fill="url(#paint36_linear_39_1298)"/>
<path d="M532.245 572.059C532.245 572.059 543.408 588.668 544.325 596.243C545.241 603.819 541.257 606.897 529.561 607.405C517.864 607.913 486.578 607.904 486.578 607.904L459.891 585.081C459.891 585.081 479.34 578.139 484.396 576.177C489.452 574.215 532.245 572.059 532.245 572.059Z" fill="#1B1BF8"/>
<path d="M439.4 667.574C439.4 667.574 442.61 670.685 440.441 674.146C440.441 674.146 415.003 678.657 408.094 676.611C408.094 676.611 409.528 673.337 417.298 669.611L416.723 670.05C416.564 670.17 416.449 670.339 416.394 670.529C416.338 670.72 416.345 670.924 416.414 671.111C416.482 671.297 416.609 671.457 416.775 671.566C416.941 671.676 417.138 671.729 417.336 671.718C422.471 671.425 433.078 670.487 439.4 667.574Z" fill="url(#paint37_linear_39_1298)"/>
<path d="M509.685 478.763C511.372 479.288 517.452 481.471 516.668 485.383C516.645 485.503 516.654 485.626 516.692 485.741C516.73 485.857 516.798 485.96 516.887 486.042C516.977 486.124 517.086 486.182 517.205 486.21C517.323 486.238 517.446 486.235 517.563 486.202C520.182 485.498 525.969 484.609 529.559 489.104C532.726 493.074 530.358 496.821 528.429 498.885C528.325 498.991 528.256 499.128 528.232 499.275C528.209 499.422 528.231 499.573 528.297 499.707C528.363 499.841 528.469 499.951 528.6 500.022C528.731 500.093 528.881 500.121 529.029 500.103C533.846 499.495 544.313 499.349 546.025 509.155C547.621 518.301 541.257 520.879 537.483 521.606C537.343 521.634 537.214 521.704 537.113 521.807C537.012 521.909 536.945 522.04 536.919 522.181C536.894 522.322 536.911 522.468 536.969 522.6C537.027 522.731 537.124 522.842 537.246 522.918C539.128 524.113 541.309 526.581 540.428 531.452C539.046 539.089 524.077 538.464 522.328 538.356C522.218 538.35 522.111 538.319 522.016 538.264L498.048 524.586C497.956 524.534 497.876 524.462 497.815 524.375C497.754 524.288 497.713 524.188 497.695 524.084L492.855 496.123C492.836 496.012 492.843 495.897 492.876 495.789C492.91 495.68 492.968 495.581 493.047 495.5L508.962 478.953C509.053 478.857 509.168 478.788 509.296 478.755C509.424 478.721 509.558 478.724 509.685 478.763Z" fill="url(#paint38_linear_39_1298)"/>
<path d="M502.055 569.861C502.055 569.861 489.055 557.479 482.657 549.279C480.954 547.092 479.799 544.53 479.287 541.806C478.775 539.082 478.92 536.275 479.712 533.619C482.632 523.775 487.824 513.58 488.298 511.992C489.024 509.56 503.601 509.661 503.601 509.661C503.601 509.661 532.281 528.28 543.552 559.821L530.897 563.76C530.897 563.76 523.408 551.195 516.008 543.205C516.008 543.205 528.813 560.122 529.263 567.048L502.055 569.861Z" fill="#5C5CFF"/>
<path d="M486.536 498.398C486.687 498.902 490.491 511.518 490.788 511.779C491.086 512.04 499.133 512.475 502.92 509.886L496.495 496.432L486.536 498.398Z" fill="url(#paint39_linear_39_1298)"/>
<path d="M492.785 471.901C492.785 471.901 485.916 474.802 481.247 484.729C476.579 494.656 480.064 499.238 484.444 499.867C488.823 500.496 495.373 500.402 502.304 493.989C509.236 487.575 501.704 468.462 492.785 471.901Z" fill="url(#paint40_linear_39_1298)"/>
<path d="M497.647 488.69C497.647 488.69 502.824 474.166 489.956 473.993L486.927 476.103C486.927 476.103 482.202 468.048 489.956 464.212C497.71 460.376 506.782 463.543 510.089 473.993C513.397 484.444 513.951 491.434 508.461 496.432C502.972 501.43 500.711 495.763 500.711 495.763C500.711 495.763 503.7 491.089 502.483 488.588C501.265 486.087 498.456 489.104 498.456 489.104L497.647 488.69Z" fill="url(#paint41_linear_39_1298)"/>
<path d="M497.578 491.171C497.578 491.171 500.197 483.692 503.693 486.67C507.188 489.649 500.853 493.574 498.372 494.854L497.578 491.171Z" fill="url(#paint42_linear_39_1298)"/>
<path d="M481.999 570.5C481.288 571.199 480.329 571.588 479.331 571.58C478.334 571.573 477.38 571.17 476.68 570.459L460.957 554.501C460.258 553.79 459.87 552.831 459.877 551.833C459.885 550.836 460.288 549.883 460.998 549.183L468.608 541.684C469.319 540.985 470.278 540.596 471.275 540.603C472.272 540.61 473.226 541.013 473.927 541.722L489.65 557.681C490.348 558.392 490.737 559.352 490.729 560.349C490.722 561.346 490.319 562.3 489.609 563.001L481.999 570.5Z" fill="url(#paint43_linear_39_1298)"/>
<path d="M469.219 542.298L461.609 549.796C461.062 550.336 460.751 551.071 460.745 551.84C460.739 552.609 461.039 553.349 461.579 553.897L477.301 569.853C477.568 570.125 477.886 570.341 478.237 570.489C478.587 570.638 478.963 570.716 479.344 570.718C479.724 570.721 480.102 570.649 480.454 570.506C480.807 570.363 481.128 570.151 481.399 569.884L489.009 562.385C489.28 562.118 489.497 561.801 489.645 561.45C489.793 561.099 489.871 560.723 489.874 560.342C489.877 559.962 489.805 559.584 489.661 559.232C489.518 558.879 489.307 558.558 489.04 558.287L473.317 542.328C473.05 542.057 472.732 541.841 472.382 541.693C472.031 541.545 471.655 541.467 471.275 541.464C470.894 541.461 470.517 541.533 470.164 541.676C469.812 541.819 469.491 542.03 469.219 542.298Z" fill="url(#paint44_linear_39_1298)"/>
<path d="M479.493 571.787C478.504 572.199 477.391 572.203 476.4 571.796C475.408 571.389 474.618 570.606 474.203 569.617L464.915 547.393C464.503 546.404 464.5 545.291 464.907 544.3C465.314 543.308 466.097 542.519 467.085 542.104L477.679 537.674C478.668 537.261 479.781 537.258 480.773 537.664C481.764 538.071 482.554 538.854 482.969 539.843L492.255 562.057C492.668 563.047 492.671 564.16 492.265 565.151C491.858 566.143 491.075 566.934 490.087 567.349L479.493 571.787Z" fill="url(#paint45_linear_39_1298)"/>
<path d="M478.038 538.537L467.444 542.967C466.682 543.286 466.077 543.895 465.764 544.659C465.45 545.424 465.453 546.282 465.772 547.044L475.052 569.257C475.371 570.019 475.98 570.624 476.744 570.937C477.509 571.251 478.366 571.248 479.129 570.929L489.722 566.499C490.485 566.18 491.089 565.571 491.403 564.807C491.716 564.042 491.713 563.184 491.394 562.422L482.106 540.207C481.788 539.447 481.18 538.844 480.417 538.531C479.655 538.217 478.799 538.22 478.038 538.537Z" fill="url(#paint46_linear_39_1298)"/>
<path d="M480.316 570.682C479.261 570.876 478.174 570.643 477.291 570.035C476.408 569.427 475.803 568.493 475.608 567.439L471.24 543.759C471.048 542.706 471.28 541.619 471.887 540.736C472.493 539.854 473.425 539.248 474.477 539.051L485.769 536.968C486.823 536.775 487.911 537.008 488.794 537.616C489.676 538.224 490.282 539.157 490.478 540.211L494.852 563.887C495.045 564.941 494.812 566.03 494.204 566.913C493.596 567.796 492.663 568.401 491.609 568.597L480.316 570.682Z" fill="url(#paint47_linear_39_1298)"/>
<path d="M485.945 537.879L474.652 539.964C473.84 540.115 473.122 540.581 472.654 541.262C472.187 541.942 472.009 542.78 472.159 543.592L476.525 567.272C476.677 568.083 477.144 568.802 477.824 569.269C478.505 569.736 479.343 569.915 480.155 569.765L491.446 567.68C492.258 567.529 492.976 567.063 493.443 566.382C493.911 565.702 494.089 564.864 493.939 564.052L489.573 540.372C489.422 539.561 488.955 538.842 488.274 538.375C487.594 537.908 486.757 537.729 485.945 537.879Z" fill="url(#paint48_linear_39_1298)"/>
<path d="M475.572 570.78L485.123 561.574L498.335 567.157C498.335 567.157 511.487 569.196 519.015 567.157L526.543 565.118L543.552 559.823L546.223 567.374C546.552 568.306 546.568 569.321 546.268 570.264C545.969 571.207 545.37 572.026 544.562 572.598C543.09 573.643 541.366 574.794 540.266 575.283C538.026 576.263 485.044 574.604 485.044 574.604L475.572 570.78Z" fill="url(#paint49_linear_39_1298)"/>
<path d="M728.18 617.706C729.631 619.854 735.399 668.493 736.302 686.457C736.33 687.003 736.147 687.538 735.791 687.952C735.435 688.367 734.934 688.629 734.391 688.684C733.847 688.739 733.304 688.582 732.872 688.248C732.44 687.913 732.154 687.425 732.072 686.885L721.526 619.252L728.18 617.706Z" fill="url(#paint50_linear_39_1298)"/>
<path d="M681.798 617.706C680.346 619.854 674.579 668.493 673.675 686.457C673.648 687.003 673.831 687.538 674.186 687.952C674.542 688.367 675.044 688.629 675.587 688.684C676.13 688.739 676.674 688.582 677.105 688.248C677.537 687.913 677.823 687.425 677.905 686.885L688.451 619.252L681.798 617.706Z" fill="url(#paint51_linear_39_1298)"/>
<path d="M736.906 613.909V614.44C736.941 618.254 733.646 621.384 729.539 621.455L680.768 622.286C676.713 622.355 673.332 619.422 673.135 615.665L673.11 615.18C672.905 611.262 676.231 607.961 680.461 607.892L729.252 607.018C733.432 606.935 736.87 610.036 736.906 613.909Z" fill="url(#paint52_linear_39_1298)"/>
<path d="M663.342 526.564C663.3 526.621 662.173 526.596 662.156 527.522C661.981 536.832 619.928 568.07 612.205 564.804L617.046 570.118C629.822 570.201 651.132 559.186 676.295 544.545L663.342 526.564Z" fill="#5C5CFF"/>
<path d="M614.5 567.813C613.804 568.497 612.865 568.878 611.889 568.87C610.913 568.863 609.98 568.469 609.294 567.774L593.911 552.155C593.227 551.459 592.847 550.52 592.854 549.544C592.861 548.568 593.255 547.634 593.949 546.948L601.398 539.609C602.094 538.924 603.033 538.544 604.009 538.551C604.985 538.558 605.919 538.953 606.604 539.647L621.988 555.266C622.671 555.963 623.051 556.902 623.043 557.878C623.036 558.854 622.642 559.787 621.947 560.473L614.5 567.813Z" fill="url(#paint53_linear_39_1298)"/>
<path d="M601.985 540.211L594.536 547.551C594.271 547.812 594.059 548.123 593.914 548.467C593.769 548.81 593.693 549.178 593.691 549.551C593.688 549.923 593.759 550.293 593.899 550.638C594.039 550.983 594.246 551.297 594.507 551.563L609.891 567.182C610.152 567.447 610.463 567.658 610.806 567.803C611.149 567.949 611.517 568.025 611.889 568.027C612.262 568.03 612.631 567.959 612.976 567.819C613.321 567.679 613.635 567.472 613.9 567.211L621.349 559.871C621.615 559.61 621.826 559.299 621.971 558.956C622.116 558.613 622.192 558.245 622.195 557.872C622.198 557.5 622.128 557.13 621.988 556.785C621.848 556.44 621.641 556.126 621.38 555.861L606.012 540.242C605.75 539.974 605.438 539.761 605.094 539.614C604.749 539.468 604.379 539.391 604.005 539.388C603.631 539.385 603.259 539.457 602.913 539.598C602.566 539.739 602.251 539.947 601.985 540.211Z" fill="url(#paint54_linear_39_1298)"/>
<path d="M612.046 569.065C611.078 569.469 609.989 569.472 609.019 569.074C608.048 568.676 607.275 567.909 606.869 566.942L597.778 545.199C597.375 544.231 597.372 543.142 597.77 542.171C598.168 541.2 598.935 540.427 599.903 540.021L610.272 535.683C611.241 535.28 612.329 535.277 613.3 535.675C614.27 536.074 615.043 536.841 615.449 537.808L624.538 559.551C624.942 560.519 624.945 561.608 624.547 562.579C624.149 563.549 623.382 564.323 622.415 564.729L612.046 569.065Z" fill="url(#paint55_linear_39_1298)"/>
<path d="M610.623 536.529L600.26 540.873C599.514 541.185 598.922 541.78 598.615 542.528C598.308 543.276 598.31 544.116 598.622 544.862L607.713 566.605C607.867 566.974 608.092 567.309 608.376 567.592C608.66 567.874 608.997 568.097 609.368 568.249C609.738 568.401 610.135 568.479 610.535 568.477C610.935 568.476 611.332 568.395 611.701 568.24L622.07 563.904C622.816 563.592 623.407 562.996 623.714 562.249C624.021 561.501 624.019 560.661 623.708 559.915L614.617 538.172C614.463 537.802 614.238 537.465 613.953 537.182C613.669 536.899 613.332 536.675 612.961 536.522C612.59 536.369 612.193 536.291 611.791 536.292C611.39 536.294 610.993 536.374 610.623 536.529Z" fill="url(#paint56_linear_39_1298)"/>
<path d="M612.853 567.991C611.822 568.178 610.759 567.949 609.897 567.354C609.035 566.76 608.443 565.847 608.251 564.817L603.97 541.64C603.784 540.609 604.013 539.546 604.608 538.684C605.202 537.822 606.114 537.229 607.143 537.037L618.197 534.998C619.228 534.811 620.291 535.039 621.153 535.634C622.016 536.229 622.608 537.142 622.799 538.172L627.073 561.35C627.26 562.381 627.032 563.444 626.437 564.307C625.842 565.169 624.93 565.761 623.899 565.952L612.853 567.991Z" fill="url(#paint57_linear_39_1298)"/>
<path d="M618.362 535.886L607.308 537.925C606.513 538.072 605.809 538.529 605.351 539.195C604.893 539.861 604.717 540.682 604.863 541.477L609.137 564.654C609.284 565.449 609.741 566.154 610.406 566.612C611.072 567.071 611.893 567.246 612.688 567.099L623.74 565.061C624.535 564.914 625.24 564.457 625.698 563.791C626.156 563.125 626.332 562.304 626.185 561.509L621.913 538.331C621.766 537.536 621.309 536.832 620.643 536.374C619.977 535.915 619.157 535.74 618.362 535.886Z" fill="url(#paint58_linear_39_1298)"/>
<path d="M640.393 572.23L637.44 570.402L626.634 568.726C626.017 568.574 625.376 568.545 624.748 568.643C624.12 568.74 623.517 568.96 622.975 569.291L613.963 574.79L638.623 575.082L640.393 572.23Z" fill="url(#paint59_linear_39_1298)"/>
<path d="M642.027 684.691C650.695 684.691 654.532 683.947 656.246 683.268C656.079 683.992 655.671 684.639 655.089 685.102C654.507 685.565 653.786 685.817 653.042 685.817H622.364C622.135 685.816 621.909 685.763 621.704 685.661C621.498 685.559 621.319 685.412 621.18 685.229C621.041 685.047 620.946 684.836 620.902 684.611C620.858 684.386 620.866 684.154 620.925 683.933C624.431 684.213 631.855 684.691 642.027 684.691Z" fill="url(#paint60_linear_39_1298)"/>
<path d="M620.933 683.933C620.981 683.744 621.066 683.565 621.184 683.41C623.522 680.427 628.215 675.738 634.606 675.83C643.959 675.963 647.221 676.981 654.488 675.888L656.202 681.572C656.369 682.123 656.386 682.708 656.254 683.268C654.54 683.947 650.703 684.691 642.034 684.691C631.855 684.691 624.431 684.213 620.933 683.933Z" fill="url(#paint61_linear_39_1298)"/>
<path d="M652.375 669.762L654.484 676.922C654.484 676.922 649.821 679.045 645.72 677.342L644.916 671.137L652.375 669.762Z" fill="url(#paint62_linear_39_1298)"/>
<path d="M588.807 680.182C595.564 685.613 599.019 687.439 600.779 687.988C600.195 688.445 599.473 688.691 598.731 688.685C597.989 688.68 597.271 688.423 596.693 687.957L572.783 668.742C572.604 668.599 572.461 668.417 572.364 668.21C572.268 668.003 572.22 667.776 572.225 667.547C572.23 667.319 572.288 667.094 572.394 666.892C572.5 666.689 572.652 666.514 572.837 666.379C575.387 668.794 580.878 673.811 588.807 680.182Z" fill="url(#paint63_linear_39_1298)"/>
<path d="M572.841 666.379C572.997 666.263 573.174 666.179 573.362 666.132C577.043 665.28 583.622 664.586 588.542 668.656C595.752 674.616 597.66 677.447 604.004 681.154L601.799 686.639C601.585 687.169 601.234 687.632 600.783 687.982C599.023 687.433 595.568 685.608 588.811 680.176C580.878 673.811 575.387 668.794 572.841 666.379Z" fill="url(#paint64_linear_39_1298)"/>
<path d="M697.398 588.192C697.398 588.192 645.491 592.43 634.844 597.444C624.197 602.457 643.534 672.729 643.534 672.729C643.534 672.729 646.431 674.123 652.881 672.119C652.881 672.119 646.268 620.262 651.19 609.022L707.389 599.828L697.398 588.192Z" fill="url(#paint65_linear_39_1298)"/>
<path d="M609.158 671.287C608.677 671.726 604 681.156 604 681.156C604 681.156 598.797 680.03 597.734 676.745L602.419 668.234L609.158 671.287Z" fill="url(#paint66_linear_39_1298)"/>
<path d="M728.659 587.758C729.778 590.792 730.328 594.006 730.281 597.238C730.188 604.718 724.173 610.792 716.702 611.164L655.345 613.964C654.715 613.993 654.111 614.223 653.622 614.621C653.132 615.019 652.784 615.564 652.628 616.175C651.186 621.754 644.138 638.887 609.678 673.07C609.232 673.512 608.649 673.79 608.025 673.857C607.401 673.925 606.773 673.78 606.242 673.444L601.337 670.345C601.087 670.189 600.907 669.941 600.838 669.654C600.768 669.367 600.814 669.065 600.965 668.811L636.69 607.806C638.566 604.707 641.582 602.469 645.091 601.573L697.39 588.201L728.659 587.758Z" fill="#1B1BF8"/>
<path d="M663.139 491.758C663.139 491.758 678.068 505.222 683.529 512.063L668.426 516.911C668.426 516.911 662.79 506.957 656.509 502.019L663.139 491.758Z" fill="url(#paint67_linear_39_1298)"/>
<path d="M729.775 588.192C729.775 588.192 713.209 592.229 697.398 588.192C697.398 588.192 680.996 559.167 672.437 551.07C672.437 551.07 674.444 573.125 638.629 575.081C639.248 573.118 636.246 571.246 635.551 570.11C635.551 570.11 654.948 565.174 655.659 546.241C656.363 527.565 663.055 518.415 669.831 513.942C674.049 511.157 676.578 509.255 677.884 508.215C678.231 507.937 678.656 507.773 679.1 507.745C679.544 507.717 679.986 507.826 680.365 508.058C687.558 512.44 721.394 535.622 729.775 588.192Z" fill="#5C5CFF"/>
<path d="M648.233 478.567C648.112 478.909 648.183 502.868 648.183 502.868L661.86 502.537L665.166 479.818C665.166 479.818 650.266 472.85 648.233 478.567Z" fill="url(#paint68_linear_39_1298)"/>
<path d="M661.216 484.234L660.413 496.33C660.403 496.484 660.372 496.636 660.321 496.781C660.002 497.679 658.685 500.684 655.692 499.148C652.977 497.753 650.479 496.52 648.542 496.712C648.122 496.751 647.731 496.947 647.447 497.259C647.163 497.572 647.007 497.979 647.008 498.402C647.008 500.578 647.121 505.482 647.863 509.731C647.938 510.146 648.166 510.518 648.502 510.774C648.837 511.03 649.257 511.151 649.677 511.113C652.304 510.889 657.83 510.26 662.156 508.712C662.443 508.611 662.698 508.434 662.894 508.199C663.089 507.965 663.218 507.682 663.266 507.381C663.738 504.382 665.206 495.272 666.01 492.805C666.761 490.481 669.967 489.643 671.338 489.388C671.56 489.346 671.771 489.26 671.958 489.134C672.146 489.009 672.306 488.846 672.429 488.657C673.311 487.305 674.805 484.054 670.796 481.803C670.597 481.691 670.422 481.541 670.283 481.361C670.143 481.181 670.041 480.975 669.983 480.754C669.925 480.534 669.912 480.304 669.945 480.079C669.978 479.853 670.056 479.636 670.174 479.442C671.166 477.798 671.977 475.152 668.955 472.996C665.887 470.806 663.011 472.098 661.348 473.287C661.024 473.517 660.63 473.624 660.234 473.592C659.838 473.56 659.467 473.39 659.184 473.111C658.844 472.787 658.359 472.607 657.678 472.862C657.459 472.939 657.227 472.97 656.995 472.952C656.763 472.934 656.538 472.868 656.333 472.758C656.128 472.649 655.949 472.497 655.806 472.314C655.663 472.13 655.561 471.919 655.504 471.694C655.031 469.874 653.74 467.764 650.327 467.666C644.262 467.492 642.293 473.855 643.075 477.975C643.858 482.094 650.44 481.908 653.984 480.623C656.678 479.645 659.485 481.801 660.675 482.892C660.86 483.061 661.004 483.27 661.098 483.502C661.192 483.734 661.232 483.985 661.216 484.234Z" fill="url(#paint69_linear_39_1298)"/>
<path d="M665.68 497.197C665.68 497.197 664.627 489.963 667.434 488.807C670.241 487.65 673.737 489.248 671.948 493.975C669.72 499.855 665.68 497.197 665.68 497.197Z" fill="url(#paint70_linear_39_1298)"/>
<path d="M672.437 551.07C673.104 546.824 673.672 543.354 673.672 538.412L672.437 551.07Z" fill="url(#paint71_linear_39_1298)"/>
<path d="M598.858 558.517L603.391 566.505C607.726 566.378 609.078 563.764 609.718 560.559C605.463 557.692 601.427 555.583 598.858 558.517Z" fill="url(#paint72_linear_39_1298)"/>
<path d="M410.52 580.63H410.449C407.818 580.63 405.686 582.763 405.686 585.394V685.18C405.686 687.811 407.818 689.944 410.449 689.944H410.52C413.15 689.944 415.283 687.811 415.283 685.18V585.394C415.283 582.763 413.15 580.63 410.52 580.63Z" fill="#7D97F4"/>
<path d="M428.818 580.277H428.747C426.116 580.277 423.984 582.41 423.984 585.041V684.827C423.984 687.458 426.116 689.591 428.747 689.591H428.818C431.448 689.591 433.58 687.458 433.58 684.827V585.041C433.58 582.41 431.448 580.277 428.818 580.277Z" fill="#7D97F4"/>
<path d="M657.389 580.806H657.318C654.688 580.806 652.555 582.939 652.555 585.57V685.356C652.555 687.987 654.688 690.12 657.318 690.12H657.389C660.019 690.12 662.152 687.987 662.152 685.356V585.57C662.152 582.939 660.019 580.806 657.389 580.806Z" fill="#7D97F4"/>
<path d="M675.685 580.453H675.614C672.983 580.453 670.851 582.586 670.851 585.217V685.003C670.851 687.635 672.983 689.767 675.614 689.767H675.685C678.315 689.767 680.448 687.635 680.448 685.003V585.217C680.448 582.586 678.315 580.453 675.685 580.453Z" fill="#7D97F4"/>
<path d="M682.718 580.703H403.584C403.136 580.703 402.773 581.066 402.773 581.514V590.925C402.773 591.373 403.136 591.736 403.584 591.736H682.718C683.166 591.736 683.529 591.373 683.529 590.925V581.514C683.529 581.066 683.166 580.703 682.718 580.703Z" fill="#7D97F4"/>
<path d="M699.543 577.529C699.625 577.163 699.609 576.782 699.497 576.425C699.385 576.067 699.181 575.745 698.905 575.492C698.27 574.9 697.43 574.578 696.562 574.594H389.459C388.266 574.594 387.158 575.087 386.514 575.902C386.202 576.278 386.013 576.74 385.972 577.226C385.931 577.713 386.041 578.2 386.285 578.622L389.614 584.469C390.381 585.812 392.026 586.665 393.844 586.665H694.455C696.146 586.665 697.597 585.693 697.919 584.345L699.543 577.529Z" fill="#91B3FA"/>
<defs>
<filter id="filter0_f_39_1298" x="0" y="-21" width="927" height="927" filterUnits="userSpaceOnUse" color-interpolation-filters="sRGB">
<feFlood flood-opacity="0" result="BackgroundImageFix"/>
<feBlend mode="normal" in="SourceGraphic" in2="BackgroundImageFix" result="shape"/>
<feGaussianBlur stdDeviation="50" result="effect1_foregroundBlur_39_1298"/>
</filter>
<linearGradient id="paint0_linear_39_1298" x1="805.217" y1="852.25" x2="325.541" y2="256.326" gradientUnits="userSpaceOnUse">
<stop stop-color="#DAE3FE"/>
<stop offset="1" stop-color="#E9EFFD"/>
</linearGradient>
<linearGradient id="paint1_linear_39_1298" x1="246.671" y1="466.941" x2="772.745" y2="331.355" gradientUnits="userSpaceOnUse">
<stop stop-color="#09005D"/>
<stop offset="1" stop-color="#1A0F91"/>
</linearGradient>
<linearGradient id="paint2_linear_39_1298" x1="114.722" y1="-535.269" x2="172.304" y2="-228.192" gradientUnits="userSpaceOnUse">
<stop stop-color="#FF928E"/>
<stop offset="1" stop-color="#FE7062"/>
</linearGradient>
<linearGradient id="paint3_linear_39_1298" x1="35.0896" y1="-659.409" x2="97.2446" y2="-343.232" gradientUnits="userSpaceOnUse">
<stop stop-color="#FF928E"/>
<stop offset="1" stop-color="#FE7062"/>
</linearGradient>
<linearGradient id="paint4_linear_39_1298" x1="-1471.05" y1="-4167.89" x2="-1091.51" y2="-2193.76" gradientUnits="userSpaceOnUse">
<stop stop-color="#FF928E"/>
<stop offset="1" stop-color="#FE7062"/>
</linearGradient>
<linearGradient id="paint5_linear_39_1298" x1="-4455.99" y1="-4046.44" x2="-2384.76" y2="-344.668" gradientUnits="userSpaceOnUse">
<stop stop-color="#FF928E"/>
<stop offset="1" stop-color="#FE7062"/>
</linearGradient>
<linearGradient id="paint6_linear_39_1298" x1="217.653" y1="442.592" x2="756.674" y2="385.689" gradientUnits="userSpaceOnUse">
<stop stop-color="#09005D"/>
<stop offset="1" stop-color="#1A0F91"/>
</linearGradient>
<linearGradient id="paint7_linear_39_1298" x1="1425.02" y1="-937.152" x2="885.836" y2="1694.32" gradientUnits="userSpaceOnUse">
<stop stop-color="#09005D"/>
<stop offset="1" stop-color="#1A0F91"/>
</linearGradient>
<linearGradient id="paint8_linear_39_1298" x1="234.675" y1="-617.128" x2="257.992" y2="-309.716" gradientUnits="userSpaceOnUse">
<stop stop-color="#FF928E"/>
<stop offset="1" stop-color="#FE7062"/>
</linearGradient>
<linearGradient id="paint9_linear_39_1298" x1="69.9909" y1="-689.76" x2="92.3869" y2="-374.853" gradientUnits="userSpaceOnUse">
<stop stop-color="#FF928E"/>
<stop offset="1" stop-color="#FE7062"/>
</linearGradient>
<linearGradient id="paint10_linear_39_1298" x1="1375.6" y1="-2087.68" x2="1087.82" y2="-590.37" gradientUnits="userSpaceOnUse">
<stop stop-color="#FF928E"/>
<stop offset="1" stop-color="#FE7062"/>
</linearGradient>
<linearGradient id="paint11_linear_39_1298" x1="-3025.25" y1="-5221.67" x2="-1438.91" y2="-1161.04" gradientUnits="userSpaceOnUse">
<stop stop-color="#FF928E"/>
<stop offset="1" stop-color="#FE7062"/>
</linearGradient>
<linearGradient id="paint12_linear_39_1298" x1="138.786" y1="-181.916" x2="341.247" y2="180.614" gradientUnits="userSpaceOnUse">
<stop stop-color="#FF928E"/>
<stop offset="1" stop-color="#FE7062"/>
</linearGradient>
<linearGradient id="paint13_linear_39_1298" x1="196.986" y1="423.479" x2="736.981" y2="423.479" gradientUnits="userSpaceOnUse">
<stop stop-color="#09005D"/>
<stop offset="1" stop-color="#1A0F91"/>
</linearGradient>
<linearGradient id="paint14_linear_39_1298" x1="1562.21" y1="-6796.81" x2="-1636.89" y2="-6492.2" gradientUnits="userSpaceOnUse">
<stop stop-color="#4F52FF"/>
<stop offset="1" stop-color="#4042E2"/>
</linearGradient>
<linearGradient id="paint15_linear_39_1298" x1="572.75" y1="-297.877" x2="426.972" y2="1449.53" gradientUnits="userSpaceOnUse">
<stop stop-color="#FEBBBA"/>
<stop offset="1" stop-color="#FF928E"/>
</linearGradient>
<linearGradient id="paint16_linear_39_1298" x1="804.777" y1="-2738.28" x2="-1382.16" y2="-2590.37" gradientUnits="userSpaceOnUse">
<stop stop-color="#4F52FF"/>
<stop offset="1" stop-color="#4042E2"/>
</linearGradient>
<linearGradient id="paint17_linear_39_1298" x1="197.007" y1="423.538" x2="736.967" y2="423.538" gradientUnits="userSpaceOnUse">
<stop stop-color="#09005D"/>
<stop offset="1" stop-color="#1A0F91"/>
</linearGradient>
<linearGradient id="paint18_linear_39_1298" x1="538.17" y1="34.9514" x2="433.325" y2="1530.79" gradientUnits="userSpaceOnUse">
<stop stop-color="#FEBBBA"/>
<stop offset="1" stop-color="#FF928E"/>
</linearGradient>
<linearGradient id="paint19_linear_39_1298" x1="301.058" y1="997.898" x2="491.514" y2="250.396" gradientUnits="userSpaceOnUse">
<stop stop-color="#FEBBBA"/>
<stop offset="1" stop-color="#FF928E"/>
</linearGradient>
<linearGradient id="paint20_linear_39_1298" x1="15250.5" y1="-6025.39" x2="15028.9" y2="-2119.41" gradientUnits="userSpaceOnUse">
<stop stop-color="#4F52FF"/>
<stop offset="1" stop-color="#4042E2"/>
</linearGradient>
<linearGradient id="paint21_linear_39_1298" x1="676.403" y1="-5.3878" x2="1728.86" y2="-2029.06" gradientUnits="userSpaceOnUse">
<stop stop-color="#09005D"/>
<stop offset="1" stop-color="#1A0F91"/>
</linearGradient>
<linearGradient id="paint22_linear_39_1298" x1="1117.48" y1="-629.973" x2="-963.559" y2="1661.03" gradientUnits="userSpaceOnUse">
<stop stop-color="#FEBBBA"/>
<stop offset="1" stop-color="#FF928E"/>
</linearGradient>
<linearGradient id="paint23_linear_39_1298" x1="969.406" y1="-389.388" x2="-1674.68" y2="1866.75" gradientUnits="userSpaceOnUse">
<stop stop-color="#FEBBBA"/>
<stop offset="1" stop-color="#FF928E"/>
</linearGradient>
<linearGradient id="paint24_linear_39_1298" x1="646.331" y1="343.676" x2="84.6903" y2="808.917" gradientUnits="userSpaceOnUse">
<stop stop-color="#FEBBBA"/>
<stop offset="1" stop-color="#FF928E"/>
</linearGradient>
<linearGradient id="paint25_linear_39_1298" x1="353.21" y1="228.95" x2="755.726" y2="760.331" gradientUnits="userSpaceOnUse">
<stop stop-color="#09005D"/>
<stop offset="1" stop-color="#1A0F91"/>
</linearGradient>
<linearGradient id="paint26_linear_39_1298" x1="1718.71" y1="-186.097" x2="-121.441" y2="1748.96" gradientUnits="userSpaceOnUse">
<stop stop-color="#FEBBBA"/>
<stop offset="1" stop-color="#FF928E"/>
</linearGradient>
<linearGradient id="paint27_linear_39_1298" x1="-5671.62" y1="-21031.5" x2="-5956.97" y2="-22048.3" gradientUnits="userSpaceOnUse">
<stop stop-color="#FEBBBA"/>
<stop offset="1" stop-color="#FF928E"/>
</linearGradient>
<linearGradient id="paint28_linear_39_1298" x1="327.055" y1="-49.8588" x2="550.955" y2="722.261" gradientUnits="userSpaceOnUse">
<stop stop-color="white"/>
<stop offset="1" stop-color="#D8DEE8"/>
</linearGradient>
<linearGradient id="paint29_linear_39_1298" x1="562.183" y1="-45.8711" x2="505.411" y2="721.215" gradientUnits="userSpaceOnUse">
<stop stop-color="#FF928E"/>
<stop offset="1" stop-color="#FE7062"/>
</linearGradient>
<linearGradient id="paint30_linear_39_1298" x1="565.805" y1="-45.6135" x2="509.844" y2="721.291" gradientUnits="userSpaceOnUse">
<stop stop-color="white"/>
<stop offset="1" stop-color="#D8DEE8"/>
</linearGradient>
<linearGradient id="paint31_linear_39_1298" x1="3023.54" y1="-4971.23" x2="3246.35" y2="-5936.9" gradientUnits="userSpaceOnUse">
<stop stop-color="#FEBBBA"/>
<stop offset="1" stop-color="#FF928E"/>
</linearGradient>
<linearGradient id="paint32_linear_39_1298" x1="684.482" y1="-37.9904" x2="511.554" y2="753.612" gradientUnits="userSpaceOnUse">
<stop stop-color="white"/>
<stop offset="1" stop-color="#D8DEE8"/>
</linearGradient>
<linearGradient id="paint33_linear_39_1298" x1="480.022" y1="186.277" x2="238.327" y2="1450.15" gradientUnits="userSpaceOnUse">
<stop stop-color="#FEBBBA"/>
<stop offset="1" stop-color="#FF928E"/>
</linearGradient>
<linearGradient id="paint34_linear_39_1298" x1="514.299" y1="715.552" x2="506.519" y2="237.659" gradientUnits="userSpaceOnUse">
<stop stop-color="#FEBBBA"/>
<stop offset="1" stop-color="#FF928E"/>
</linearGradient>
<linearGradient id="paint35_linear_39_1298" x1="484.113" y1="158.191" x2="370.432" y2="1874.19" gradientUnits="userSpaceOnUse">
<stop stop-color="#09005D"/>
<stop offset="1" stop-color="#1A0F91"/>
</linearGradient>
<linearGradient id="paint36_linear_39_1298" x1="685.015" y1="370.632" x2="969.164" y2="258.343" gradientUnits="userSpaceOnUse">
<stop stop-color="#FEBBBA"/>
<stop offset="1" stop-color="#FF928E"/>
</linearGradient>
<linearGradient id="paint37_linear_39_1298" x1="496.027" y1="-1003.55" x2="-475.406" y2="3326.06" gradientUnits="userSpaceOnUse">
<stop stop-color="#09005D"/>
<stop offset="1" stop-color="#1A0F91"/>
</linearGradient>
<linearGradient id="paint38_linear_39_1298" x1="728.332" y1="217.441" x2="469.258" y2="502.033" gradientUnits="userSpaceOnUse">
<stop stop-color="#09005D"/>
<stop offset="1" stop-color="#1A0F91"/>
</linearGradient>
<linearGradient id="paint39_linear_39_1298" x1="577.939" y1="1167.3" x2="441.472" y2="332.297" gradientUnits="userSpaceOnUse">
<stop stop-color="#FEBBBA"/>
<stop offset="1" stop-color="#FF928E"/>
</linearGradient>
<linearGradient id="paint40_linear_39_1298" x1="254.052" y1="315.989" x2="900.857" y2="802.559" gradientUnits="userSpaceOnUse">
<stop stop-color="#FEBBBA"/>
<stop offset="1" stop-color="#FF928E"/>
</linearGradient>
<linearGradient id="paint41_linear_39_1298" x1="884.653" y1="110.119" x2="465.509" y2="655.748" gradientUnits="userSpaceOnUse">
<stop stop-color="#09005D"/>
<stop offset="1" stop-color="#1A0F91"/>
</linearGradient>
<linearGradient id="paint42_linear_39_1298" x1="-961.008" y1="-327.078" x2="1179.45" y2="1490.92" gradientUnits="userSpaceOnUse">
<stop stop-color="#FEBBBA"/>
<stop offset="1" stop-color="#FF928E"/>
</linearGradient>
<linearGradient id="paint43_linear_39_1298" x1="327.438" y1="-48.8468" x2="550.896" y2="721.513" gradientUnits="userSpaceOnUse">
<stop stop-color="#FF928E"/>
<stop offset="1" stop-color="#FE7062"/>
</linearGradient>
<linearGradient id="paint44_linear_39_1298" x1="326.955" y1="-49.958" x2="550.883" y2="722.246" gradientUnits="userSpaceOnUse">
<stop stop-color="white"/>
<stop offset="1" stop-color="#D8DEE8"/>
</linearGradient>
<linearGradient id="paint45_linear_39_1298" x1="725.235" y1="83.1529" x2="821.566" y2="-114.814" gradientUnits="userSpaceOnUse">
<stop stop-color="#FEBBBA"/>
<stop offset="1" stop-color="#FF928E"/>
</linearGradient>
<linearGradient id="paint46_linear_39_1298" x1="572.866" y1="-63.9263" x2="516.895" y2="703.212" gradientUnits="userSpaceOnUse">
<stop stop-color="white"/>
<stop offset="1" stop-color="#D8DEE8"/>
</linearGradient>
<linearGradient id="paint47_linear_39_1298" x1="678.809" y1="-37.0959" x2="502.138" y2="751.499" gradientUnits="userSpaceOnUse">
<stop stop-color="#FF928E"/>
<stop offset="1" stop-color="#FE7062"/>
</linearGradient>
<linearGradient id="paint48_linear_39_1298" x1="684.454" y1="-37.7583" x2="511.493" y2="753.921" gradientUnits="userSpaceOnUse">
<stop stop-color="white"/>
<stop offset="1" stop-color="#D8DEE8"/>
</linearGradient>
<linearGradient id="paint49_linear_39_1298" x1="533.585" y1="423.288" x2="1073.58" y2="423.288" gradientUnits="userSpaceOnUse">
<stop stop-color="#FEBBBA"/>
<stop offset="1" stop-color="#FF928E"/>
</linearGradient>
<linearGradient id="paint50_linear_39_1298" x1="196.797" y1="423.468" x2="737.038" y2="423.468" gradientUnits="userSpaceOnUse">
<stop stop-color="#FEBBBA"/>
<stop offset="1" stop-color="#FF928E"/>
</linearGradient>
<linearGradient id="paint51_linear_39_1298" x1="196.968" y1="423.468" x2="737.208" y2="423.468" gradientUnits="userSpaceOnUse">
<stop stop-color="#FEBBBA"/>
<stop offset="1" stop-color="#FF928E"/>
</linearGradient>
<linearGradient id="paint52_linear_39_1298" x1="197.034" y1="423.406" x2="737.028" y2="423.406" gradientUnits="userSpaceOnUse">
<stop stop-color="#FEBBBA"/>
<stop offset="1" stop-color="#FF928E"/>
</linearGradient>
<linearGradient id="paint53_linear_39_1298" x1="359.997" y1="90.1703" x2="255.52" y2="-241.701" gradientUnits="userSpaceOnUse">
<stop stop-color="#FEBBBA"/>
<stop offset="1" stop-color="#FF928E"/>
</linearGradient>
<linearGradient id="paint54_linear_39_1298" x1="327.033" y1="-49.7669" x2="550.852" y2="722.311" gradientUnits="userSpaceOnUse">
<stop stop-color="white"/>
<stop offset="1" stop-color="#D8DEE8"/>
</linearGradient>
<linearGradient id="paint55_linear_39_1298" x1="567.462" y1="-73.3496" x2="510.721" y2="693.601" gradientUnits="userSpaceOnUse">
<stop stop-color="#FF928E"/>
<stop offset="1" stop-color="#FE7062"/>
</linearGradient>
<linearGradient id="paint56_linear_39_1298" x1="571.375" y1="-74.9631" x2="515.409" y2="691.955" gradientUnits="userSpaceOnUse">
<stop stop-color="white"/>
<stop offset="1" stop-color="#D8DEE8"/>
</linearGradient>
<linearGradient id="paint57_linear_39_1298" x1="845.513" y1="245.001" x2="1049.43" y2="47.4392" gradientUnits="userSpaceOnUse">
<stop stop-color="#FEBBBA"/>
<stop offset="1" stop-color="#FF928E"/>
</linearGradient>
<linearGradient id="paint58_linear_39_1298" x1="684.53" y1="-37.7071" x2="511.574" y2="753.91" gradientUnits="userSpaceOnUse">
<stop stop-color="white"/>
<stop offset="1" stop-color="#D8DEE8"/>
</linearGradient>
<linearGradient id="paint59_linear_39_1298" x1="774.156" y1="187.856" x2="234.976" y2="186.524" gradientUnits="userSpaceOnUse">
<stop stop-color="#FEBBBA"/>
<stop offset="1" stop-color="#FF928E"/>
</linearGradient>
<linearGradient id="paint60_linear_39_1298" x1="455.82" y1="5770.67" x2="-1183.42" y2="9989.11" gradientUnits="userSpaceOnUse">
<stop stop-color="#09005D"/>
<stop offset="1" stop-color="#1A0F91"/>
</linearGradient>
<linearGradient id="paint61_linear_39_1298" x1="320.025" y1="-3438.67" x2="2105.52" y2="-334.503" gradientUnits="userSpaceOnUse">
<stop stop-color="#4F52FF"/>
<stop offset="1" stop-color="#4042E2"/>
</linearGradient>
<linearGradient id="paint62_linear_39_1298" x1="736.782" y1="423.567" x2="196.682" y2="423.567" gradientUnits="userSpaceOnUse">
<stop stop-color="#FEBBBA"/>
<stop offset="1" stop-color="#FF928E"/>
</linearGradient>
<linearGradient id="paint63_linear_39_1298" x1="450.65" y1="1167.85" x2="430.789" y2="1721.94" gradientUnits="userSpaceOnUse">
<stop stop-color="#09005D"/>
<stop offset="1" stop-color="#1A0F91"/>
</linearGradient>
<linearGradient id="paint64_linear_39_1298" x1="340.801" y1="-847.956" x2="652.772" y2="716.822" gradientUnits="userSpaceOnUse">
<stop stop-color="#4F52FF"/>
<stop offset="1" stop-color="#4042E2"/>
</linearGradient>
<linearGradient id="paint65_linear_39_1298" x1="387.049" y1="408.204" x2="529.553" y2="21.0523" gradientUnits="userSpaceOnUse">
<stop stop-color="#09005D"/>
<stop offset="1" stop-color="#1A0F91"/>
</linearGradient>
<linearGradient id="paint66_linear_39_1298" x1="736.998" y1="423.261" x2="197.007" y2="423.261" gradientUnits="userSpaceOnUse">
<stop stop-color="#FEBBBA"/>
<stop offset="1" stop-color="#FF928E"/>
</linearGradient>
<linearGradient id="paint67_linear_39_1298" x1="729.08" y1="564.809" x2="168.754" y2="457.792" gradientUnits="userSpaceOnUse">
<stop stop-color="#FEBBBA"/>
<stop offset="1" stop-color="#FF928E"/>
</linearGradient>
<linearGradient id="paint68_linear_39_1298" x1="224.556" y1="327.628" x2="407.626" y2="1256.11" gradientUnits="userSpaceOnUse">
<stop stop-color="#FEBBBA"/>
<stop offset="1" stop-color="#FF928E"/>
</linearGradient>
<linearGradient id="paint69_linear_39_1298" x1="601.36" y1="557.484" x2="114.644" y2="305.594" gradientUnits="userSpaceOnUse">
<stop stop-color="#09005D"/>
<stop offset="1" stop-color="#1A0F91"/>
</linearGradient>
<linearGradient id="paint70_linear_39_1298" x1="1097.44" y1="2289.12" x2="497.708" y2="499.256" gradientUnits="userSpaceOnUse">
<stop stop-color="#FEBBBA"/>
<stop offset="1" stop-color="#FF928E"/>
</linearGradient>
<linearGradient id="paint71_linear_39_1298" x1="-2010.75" y1="-5827.18" x2="-1994.7" y2="-1527.98" gradientUnits="userSpaceOnUse">
<stop stop-color="#4F52FF"/>
<stop offset="1" stop-color="#4042E2"/>
</linearGradient>
<linearGradient id="paint72_linear_39_1298" x1="177.749" y1="711.94" x2="669.702" y2="255.081" gradientUnits="userSpaceOnUse">
<stop stop-color="#FEBBBA"/>
<stop offset="1" stop-color="#FF928E"/>
</linearGradient>
</defs>
</svg>
