<svg width="100" height="31" viewBox="0 0 100 31" fill="none" xmlns="http://www.w3.org/2000/svg">
<path d="M13.536 30.5L12.336 23.54H6L4.896 30.5H0.576L5.904 0.451998H12.192L17.904 30.5H13.536ZM6.528 20.036H11.76L9.024 4.196L6.528 20.036ZM25.2848 26.996H32.7248V30.5H20.9648V0.451998H25.2848V26.996ZM39.7223 26.996H47.1623V30.5H35.4023V0.451998H39.7223V26.996Z" fill="#5C5CFF"/>
<path d="M58.998 17.0054C58.7977 18.9926 58.0307 20.8915 56.7783 22.5002H61.215C59.9628 20.8917 59.1966 18.9926 58.998 17.0054Z" fill="#5C5CFF"/>
<path d="M63.1386 12.2144C60.3913 10.4213 59.0324 8.56287 58.9977 8.5C58.9604 8.56287 57.6014 10.4213 54.8568 12.2144C52.1122 14.0074 51.4407 16.2934 52.4346 17.9984C53.4285 19.7035 57.4122 20.5384 58.9977 17.1459C60.5805 20.5384 64.5642 19.706 65.5582 17.9984C66.5521 16.2909 65.9206 14.0301 63.1386 12.2144Z" fill="#5C5CFF"/>
<path d="M72.88 0.451998H77.2V30.5H72.88V0.451998ZM93.2781 0.451998H97.2621V30.5H92.8941L86.5581 8.804V30.5H82.5741V0.451998H87.1341L93.2781 21.524V0.451998Z" fill="#5C5CFF"/>
</svg>
